# xmcd
#
# Track frame offsets: 
#        182
#        16212
#        28365
#        39790
#        47022
#        57307
#        69862
#        83330
#        94602
#        104975
#        118522
#        131285
#
# Disc length: 1963 seconds
#
# Revision: 2
# Processed by: cddbd v1.5.2PL0 Copyright (c) Steve Scherf et al.
# Submitted via: ExactAudioCopy v0.99pb5
#
DISCID=9007a90c
DTITLE=manos xatzidakis - gia thn elenh
DYEAR=1985
DGENRE=
TTITLE0=enas kahmos thn xaraygh
TTITLE1=mh vazeis sto hlektrofono
TTITLE2=sth pylh tou andrianou
TTITLE3=otan 8a valeis to xaki
TTITLE4=magkas sto ry8mo tou ennia
TTITLE5=nyxterinos aggelos
TTITLE6=psila sthn akrokorin8o
TTITLE7=gia thn elenh
TTITLE8=myrizei o kosmo giasemi
TTITLE9=to palio spiti
TTITLE10=esy sto ergostasio ki egw sto adeio spiti
TTITLE11=mia nyxta me to gkazi
EXTD=klcanislupus
EXTT0=klcanislupus
EXTT1=
EXTT2=
EXTT3=
EXTT4=
EXTT5=
EXTT6=
EXTT7=
EXTT8=
EXTT9=
EXTT10=
EXTT11=
PLAYORDER=
